<?xml version="1.0" encoding="utf-8"?>
<!-- Generator: Adobe Adobe Illustrator 24.2.0, SVG Export Plug-In . SVG Version: 6.00 Build 0)  -->
<svg version="1.1" id="Layer_1" xmlns="http://www.w3.org/2000/svg" xmlns:xlink="http://www.w3.org/1999/xlink" x="0px" y="0px"
	 viewBox="0 0 1200 1200" style="enable-background:new 0 0 1200 1200;" xml:space="preserve">
<g>
	<path d="M600,321c37.67,0,74.21,7.37,108.59,21.92c33.22,14.05,63.06,34.17,88.69,59.8c25.63,25.63,45.75,55.47,59.8,88.69
		C871.63,525.79,879,562.33,879,600s-7.37,74.21-21.92,108.59c-14.05,33.22-34.17,63.06-59.8,88.69
		c-25.63,25.63-55.47,45.75-88.69,59.8C674.21,871.63,637.67,879,600,879s-74.21-7.37-108.59-21.92
		c-33.22-14.05-63.06-34.17-88.69-59.8c-25.63-25.63-45.75-55.47-59.8-88.69C328.37,674.21,321,637.67,321,600
		s7.37-74.21,21.92-108.59c14.05-33.22,34.17-63.06,59.8-88.69c25.63-25.63,55.47-45.75,88.69-59.8
		C525.79,328.37,562.33,321,600,321 M600,300c-165.69,0-300,134.31-300,300s134.31,300,300,300s300-134.31,300-300
		S765.69,300,600,300L600,300z"/>
</g>
<g>
	<g>
		<ellipse transform="matrix(0.7071 -0.7071 0.7071 0.7071 105.7278 453.0193)" cx="599.71" cy="98.88" rx="88.88" ry="88.88"/>
		<path d="M599.71,15c46.25,0,83.88,37.63,83.88,83.88s-37.63,83.88-83.88,83.88s-83.88-37.63-83.88-83.88S553.45,15,599.71,15
			 M599.71,5c-51.85,0-93.88,42.03-93.88,93.88s42.03,93.88,93.88,93.88c51.85,0,93.88-42.03,93.88-93.88S651.56,5,599.71,5
			L599.71,5z"/>
	</g>
	<g>
		<path d="M954.13,334.34c-23.74,0-46.06-9.25-62.85-26.03s-26.03-39.11-26.03-62.85c0-23.74,9.25-46.06,26.03-62.85
			c16.79-16.79,39.11-26.03,62.85-26.03c23.74,0,46.06,9.25,62.85,26.03c34.66,34.66,34.66,91.05,0,125.7
			C1000.2,325.09,977.88,334.34,954.13,334.34z"/>
		<path d="M954.13,161.57c22.41,0,43.47,8.73,59.32,24.57c15.84,15.84,24.57,36.91,24.57,59.32s-8.73,43.47-24.57,59.32
			c-15.84,15.84-36.91,24.57-59.32,24.57c-22.41,0-43.47-8.73-59.32-24.57c-15.84-15.84-24.57-36.91-24.57-59.32
			s8.73-43.47,24.57-59.32C910.66,170.29,931.73,161.57,954.13,161.57 M954.13,151.57c-24.03,0-48.05,9.17-66.39,27.5
			c-36.66,36.66-36.66,96.11,0,132.77c18.33,18.33,42.36,27.5,66.39,27.5c24.03,0,48.05-9.17,66.39-27.5
			c36.66-36.66,36.66-96.11,0-132.77C1002.19,160.73,978.16,151.57,954.13,151.57L954.13,151.57z"/>
	</g>
	<g>
		<circle cx="1101.12" cy="599.71" r="88.88"/>
		<path d="M1101.11,515.82c46.25,0,83.89,37.63,83.89,83.88s-37.63,83.88-83.89,83.88c-46.25,0-83.88-37.63-83.88-83.88
			S1054.86,515.82,1101.11,515.82 M1101.11,505.82c-51.85,0-93.88,42.03-93.88,93.88c0,51.85,42.03,93.88,93.88,93.88
			c51.85,0,93.89-42.03,93.89-93.88C1195,547.86,1152.97,505.82,1101.11,505.82L1101.11,505.82z"/>
	</g>
	<g>
		<path d="M954.55,1043.02c-23.74,0-46.06-9.25-62.85-26.03c-34.66-34.66-34.66-91.05,0-125.7c16.79-16.79,39.11-26.03,62.85-26.03
			c23.74,0,46.06,9.25,62.85,26.03c34.66,34.66,34.66,91.05,0,125.7C1000.61,1033.77,978.29,1043.02,954.55,1043.02z"/>
		<path d="M954.55,870.25c22.41,0,43.47,8.73,59.32,24.57c15.84,15.84,24.57,36.91,24.57,59.32c0,22.41-8.73,43.47-24.57,59.32
			c-15.84,15.84-36.91,24.57-59.32,24.57c-22.41,0-43.47-8.73-59.32-24.57c-15.84-15.84-24.57-36.91-24.57-59.32
			c0-22.41,8.73-43.47,24.57-59.32C911.08,878.98,932.14,870.25,954.55,870.25 M954.55,860.25c-24.03,0-48.05,9.17-66.39,27.5
			c-36.66,36.66-36.66,96.11,0,132.77c18.33,18.33,42.36,27.5,66.39,27.5c24.03,0,48.05-9.17,66.39-27.5
			c36.66-36.66,36.66-96.11,0-132.77C1002.6,869.42,978.58,860.25,954.55,860.25L954.55,860.25z"/>
	</g>
	<g>
		<ellipse transform="matrix(0.3827 -0.9239 0.9239 0.3827 -646.727 1234.3345)" cx="600.29" cy="1101.12" rx="88.88" ry="88.89"/>
		<path d="M600.29,1017.23c46.25,0,83.88,37.63,83.88,83.88c0,46.25-37.63,83.89-83.88,83.89s-83.88-37.63-83.88-83.89
			C516.41,1054.86,554.04,1017.23,600.29,1017.23 M600.29,1007.23c-51.85,0-93.88,42.03-93.88,93.88
			c0,51.85,42.03,93.89,93.88,93.89c51.85,0,93.88-42.03,93.88-93.89C694.18,1049.26,652.14,1007.23,600.29,1007.23L600.29,1007.23z
			"/>
	</g>
	<g>
		<path d="M245.87,1043.43c-23.74,0-46.06-9.25-62.85-26.03c-34.66-34.66-34.66-91.05,0-125.7c16.79-16.79,39.11-26.03,62.85-26.03
			c23.74,0,46.06,9.25,62.85,26.03c34.66,34.66,34.66,91.05,0,125.7C291.93,1034.19,269.61,1043.43,245.87,1043.43z"/>
		<path d="M245.87,870.66c22.41,0,43.47,8.73,59.32,24.57c15.84,15.84,24.57,36.91,24.57,59.32c0,22.41-8.73,43.47-24.57,59.32
			c-15.84,15.84-36.91,24.57-59.32,24.57c-22.41,0-43.47-8.73-59.32-24.57c-32.71-32.71-32.71-85.92,0-118.63
			C202.39,879.39,223.46,870.66,245.87,870.66 M245.87,860.66c-24.03,0-48.05,9.17-66.39,27.5c-36.66,36.66-36.66,96.11,0,132.77
			c18.33,18.33,42.36,27.5,66.39,27.5s48.05-9.17,66.39-27.5c36.66-36.66,36.66-96.11,0-132.77
			C293.92,869.83,269.89,860.66,245.87,860.66L245.87,860.66z"/>
	</g>
	<g>
		<ellipse transform="matrix(0.3827 -0.9239 0.9239 0.3827 -493.5552 461.9281)" cx="98.88" cy="600.29" rx="88.89" ry="88.88"/>
		<path d="M98.88,516.41c46.25,0,83.88,37.63,83.88,83.88s-37.63,83.88-83.88,83.88S15,646.55,15,600.29S52.63,516.41,98.88,516.41
			 M98.88,506.41C47.03,506.41,5,548.44,5,600.29c0,51.85,42.03,93.88,93.88,93.88s93.88-42.03,93.88-93.88
			C192.77,548.44,150.74,506.41,98.88,506.41L98.88,506.41z"/>
	</g>
	<g>
		<path d="M245.45,334.75c-23.74,0-46.06-9.25-62.85-26.03c-16.79-16.79-26.03-39.11-26.03-62.85c0-23.74,9.25-46.06,26.03-62.85
			c16.79-16.79,39.11-26.03,62.85-26.03c23.74,0,46.06,9.25,62.85,26.03c34.66,34.66,34.66,91.05,0,125.7
			C291.52,325.5,269.19,334.75,245.45,334.75z"/>
		<path d="M245.45,161.98c22.41,0,43.47,8.73,59.32,24.57c15.84,15.84,24.57,36.91,24.57,59.32c0,22.41-8.73,43.47-24.57,59.32
			c-15.84,15.84-36.91,24.57-59.32,24.57c-22.41,0-43.47-8.73-59.32-24.57c-32.71-32.71-32.71-85.92,0-118.63
			C201.98,170.71,223.05,161.98,245.45,161.98 M245.45,151.98c-24.03,0-48.05,9.17-66.39,27.5c-36.66,36.66-36.66,96.11,0,132.77
			c18.33,18.33,42.36,27.5,66.39,27.5c24.03,0,48.05-9.17,66.39-27.5c36.66-36.66,36.66-96.11,0-132.77
			C293.51,161.15,269.48,151.98,245.45,151.98L245.45,151.98z"/>
	</g>
</g>
</svg>
